<?xml version="1.0" ?>
<svg viewBox="0 0 64 64" xmlns="http://www.w3.org/2000/svg">

    <path
        d="M44.6,43.8A1,1,0,0,0,45,43v-.2a19.062,19.062,0,0,0,4.068-5.538A12.017,12.017,0,0,0,61,48a1,1,0,0,0,1-1V23A12.013,12.013,0,0,0,50,11H48.125a18.963,18.963,0,0,0-35.074,9H12a5,5,0,0,0,0,10h1.053A19,19,0,0,0,19,42.8V43a1,1,0,0,0,.4.8A20.741,20.741,0,0,0,23,45.949v1.8a3.013,3.013,0,0,1-2.382,2.936l-9.635,2.029a12.068,12.068,0,0,0-8.932,7.965A1,1,0,0,0,2,61v1H4v-.833a10.063,10.063,0,0,1,7.4-6.491l1.675-.353C17.365,58.51,24.383,61,32,61s14.635-2.49,18.93-6.677l1.675.353A10.063,10.063,0,0,1,60,61.167V62h2V61a1,1,0,0,0-.051-.316,12.068,12.068,0,0,0-8.932-7.965L43.382,50.69A3.013,3.013,0,0,1,41,47.754v-1.8A20.741,20.741,0,0,0,44.6,43.8ZM20.392,29.921,15,23.63v-.673c5.7-.348,10.457-3.624,12.238-8.085,3.031,4.588,11.348,7.866,21.523,8.113l-5.2,6.929-11.4-1.9a.962.962,0,0,0-.33,0ZM52,22a3,3,0,0,1,0,6H51V22ZM45,39.891V31.333L49,26v3A16.979,16.979,0,0,1,45,39.891ZM50,13A10.011,10.011,0,0,1,60,23V45.95A10.014,10.014,0,0,1,51,36V30h1a5,5,0,0,0,0-10H50.949a18.838,18.838,0,0,0-1.739-7ZM32,4A17.018,17.018,0,0,1,49,20.988C37.517,20.741,28,16.268,28,11H26c0,5.232-4.849,9.531-11,9.958A17.017,17.017,0,0,1,32,4ZM9,25a3,3,0,0,1,3-3h1v6H12A3,3,0,0,1,9,25Zm6,4V26.7l4,4.667v8.521A16.979,16.979,0,0,1,15,29Zm6,11.22,3.8.76.392-1.96L21,38.18V35.82l4.2-.84L24.8,33.02l-3.8.76V31.847l11-1.833,11,1.833V33.78l-3.8-.76L38.8,34.98l4.2.84v2.36l-4.2.84.392,1.96,3.8-.76v2.272a19.108,19.108,0,0,1-22,0ZM42.97,52.647l5.538,1.166C44.527,57.084,38.517,59,32,59s-12.527-1.916-16.508-5.187l5.538-1.166A5.022,5.022,0,0,0,25,47.754v-.982a21,21,0,0,0,14,0v.982A5.022,5.022,0,0,0,42.97,52.647Z" fill="#6E75C5"/>
    <circle cx="25" cy="26" r="2" fill="#6E75C5"/>
    <circle cx="39" cy="26" r="2" fill="#6E75C5"/>
</svg>