<svg id="الرئيسية" xmlns="http://www.w3.org/2000/svg" width="24" height="24" viewBox="0 0 24 24">
  <rect id="Rectangle_19064" data-name="Rectangle 19064" width="24" height="24" fill="#101010" opacity="0"/>
  <g id="_01_align_center" data-name="01 align center" transform="translate(2 1.68)">
    <path id="Path_27697" data-name="Path 27697" d="M11.115.753a1.652,1.652,0,0,0-2.23,0L0,8.847V17.62a2.683,2.683,0,0,0,2.667,2.7H17.333A2.683,2.683,0,0,0,20,17.62V8.847ZM12.5,18.63h-5V14.39a2.5,2.5,0,1,1,5,0Zm5.833-1.012a1.006,1.006,0,0,1-1,1.012H14.167V14.39a4.167,4.167,0,1,0-8.333,0v4.24H2.667a1.006,1.006,0,0,1-1-1.012V9.6L10,2.006,18.333,9.6Z" transform="translate(0 0)" fill="#101010"/>
  </g>
</svg>
