<?xml version="1.0" ?>
<svg enable-background="new 0 0 612 792" version="1.1" viewBox="0 0 612 792"
    xmlns="http://www.w3.org/2000/svg" xmlns:xlink="http://www.w3.org/1999/xlink"><g id="Layer_2"><path d="M306,190c-113.774,0-206,92.226-206,206s92.226,206,206,206s206-92.226,206-206S419.774,190,306,190z    M306.623,287.66c9.012,0,16.033,7.21,16.033,17.28c0,8.647-7.02,16.737-16.385,16.737c-8.999,0-16.738-8.091-16.738-16.737   C289.534,294.87,297.272,287.66,306.623,287.66z M345.154,505.817h-73.618V496.1c22.131-1.626,24.828-3.957,24.828-26.644V398.9   c0-20.695-0.718-22.145-22.497-25.018v-8.823c17.469-3.239,32.404-7.373,46.445-14.041v118.436   c0,22.687,2.345,25.018,24.842,26.644V505.817z" fill="#252525"/></g>
    <g id="Layer_3" /></svg>