<?xml version="1.0" ?><svg viewBox="0 0 64 64" xmlns="http://www.w3.org/2000/svg"><title/><g data-name="Layer 26" id="Layer_26"><path d="M49.16,46,38,42.28V37.52A13,13,0,0,0,44.83,28H45a4,4,0,0,0,3-6.62V17a16,16,0,0,0-32,0v4.38A4,4,0,0,0,19,28h.17A13,13,0,0,0,26,37.52v4.76L14.84,46A10,10,0,0,0,8,55.49V62a1,1,0,0,0,1,1H55a1,1,0,0,0,1-1V55.49A10,10,0,0,0,49.16,46ZM54,55.49V58H48V56H46v5H44V56a1,1,0,0,0-1-1H42V45.72l6.53,2.18A8,8,0,0,1,54,55.49ZM42,57v4H37V57ZM24,56a1,1,0,1,1-1-1A1,1,0,0,1,24,56Zm2.8-11.88,4.58,3.66a1,1,0,0,0,1.24,0l4.58-3.66,1.41.47L32,49.73l-6.61-5.14ZM21,26V19h5a10.64,10.64,0,0,0,9-4.9A10.62,10.62,0,0,0,43,19V26a10.37,10.37,0,0,1-.06,1.12,20.74,20.74,0,0,0-21.88,0A10.37,10.37,0,0,1,21,26Zm24,0V22a2,2,0,0,1,0,4ZM32,3A14,14,0,0,1,46,17v3.14A4.09,4.09,0,0,0,45,20V18a1,1,0,0,0-1-1,8.66,8.66,0,0,1-7.79-4.81l-.32-.64a1,1,0,0,0-1.78,0l-.32.64A8.66,8.66,0,0,1,26,17H20a1,1,0,0,0-1,1v2a4.09,4.09,0,0,0-1,.14V17A14,14,0,0,1,32,3ZM17,24a2,2,0,0,1,2-2v4A2,2,0,0,1,17,24Zm4.48,5.21.08-.05a18.83,18.83,0,0,1,20.88,0l.08.05a11,11,0,0,1-21,0ZM32,39a12.89,12.89,0,0,0,4-.64v4.16l-4,3.2-4-3.2V38.36A12.89,12.89,0,0,0,32,39ZM15.47,47.9,22,45.72v7.46a3,3,0,1,0,2,0V46l7.39,5.75a1,1,0,0,0,1.22,0L40,46v9H36a1,1,0,0,0-1,1v5H18V56H16v2H10V55.49A8,8,0,0,1,15.47,47.9ZM10,60h6v1H10Zm38,1V60h6v1Z"/></g></svg>